<?xml version="1.0" encoding="UTF-8" standalone="no"?>
<!-- Created with Inkscape (http://www.inkscape.org/) -->

<svg
   width="500"
   height="170"
   viewBox="0 0 132.29166 44.979168"
   version="1.1"
   id="svg5"
   inkscape:version="1.1 (ce6663b3b7, 2021-05-25)"
   sodipodi:docname="Logo.svg"
   inkscape:export-filename="/home/jesse/Documents/Programming/Websites/Remodel/Logo2.png"
   inkscape:export-xdpi="96"
   inkscape:export-ydpi="96"
   xmlns:inkscape="http://www.inkscape.org/namespaces/inkscape"
   xmlns:sodipodi="http://sodipodi.sourceforge.net/DTD/sodipodi-0.dtd"
   xmlns:xlink="http://www.w3.org/1999/xlink"
   xmlns="http://www.w3.org/2000/svg"
   xmlns:svg="http://www.w3.org/2000/svg">
  <sodipodi:namedview
     id="namedview7"
     pagecolor="#ffffff"
     bordercolor="#666666"
     borderopacity="1.0"
     inkscape:pageshadow="2"
     inkscape:pageopacity="0.0"
     inkscape:pagecheckerboard="true"
     inkscape:document-units="px"
     showgrid="true"
     showborder="true"
     inkscape:showpageshadow="false"
     units="px"
     inkscape:zoom="18.51268"
     inkscape:cx="335.20268"
     inkscape:cy="75.974954"
     inkscape:window-width="1920"
     inkscape:window-height="1136"
     inkscape:window-x="0"
     inkscape:window-y="27"
     inkscape:window-maximized="1"
     inkscape:current-layer="g1185"
     borderlayer="true"
     inkscape:snap-global="false"
     inkscape:snap-bbox="false">
    <inkscape:grid
       type="xygrid"
       id="grid1662"
       empspacing="5" />
  </sodipodi:namedview>
  <defs
     id="defs2" />
  <style
     id="style5">
     path { fill: #7ed957; }
  </style>
  <g
     inkscape:label="Background"
     inkscape:groupmode="layer"
     id="layer1"
     style="display:none;opacity:1">
    <image
       width="132.29167"
       height="132.29167"
       preserveAspectRatio="none"
       xlink:href="logo.png"
       id="image892"
       x="0"
       y="-29.104166"
       style="fill:#000000;fill-opacity:1" />
  </g>
  <g
     inkscape:label="Layer 1"
     inkscape:groupmode="layer"
     id="g1185"
     style="display:inline;opacity:1">
    <path
       id="path2365"
       d="m 88.873643,16.139581 c -1.215451,0.0016 -3.44197,0.886004 -3.677811,2.38125 v 4.497917 c 0.365281,1.516963 2.031314,2.349624 3.704167,2.381252 1.685559,0.03187 3.377857,-0.749206 3.704166,-2.381252 v -4.497917 c -0.158711,-1.717326 -2.476487,-2.38284 -3.730522,-2.38125 z m 0.02636,1.852085 c 0.654258,-0.01004 1.552328,0.27413 1.587496,1.058334 v 3.439583 c -0.08785,0.698745 -0.83694,1.020909 -1.587496,1.058333 -0.777204,-0.07154 -1.372996,-0.347986 -1.587504,-1.058333 l 7e-6,-3.439585 c 0.09271,-0.744344 0.985166,-1.050126 1.587497,-1.058332 z"
       sodipodi:nodetypes="cccccccccccccc" />
    <path
       d="M 6.6145827,9.7895827 24.60625,1.5874987 42.597916,9.7895827 V 11.906249 H 6.6145827 Z"
       id="path1167"
       sodipodi:nodetypes="cccccc" />
    <path
       d="m 6.6152344,35.982422 v 1.853515 H 42.597656 v -1.853515 z"
       id="path1169" />
    <path
       d="m 6.6152344,38.099609 v 1.851563 H 42.597656 v -1.851563 z"
       id="path1171" />
    <path
       d="m 6.6152344,40.216797 v 1.851562 H 42.597656 v -1.851562 z"
       id="path1173" />
    <path
       d="M 8.9960938,12.169922 V 35.71875 H 12.964844 V 12.169922 Z"
       id="path1175" />
    <path
       d="M 15.875,12.169922 V 35.71875 h 3.96875 V 12.169922 Z"
       id="path1177" />
    <path
       d="M 22.886719,12.169922 V 35.71875 h 3.96875 V 12.169922 Z"
       id="path1179" />
    <path
       d="M 29.898437,12.169922 V 35.71875 h 3.96875 V 12.169922 Z"
       id="path1181" />
    <path
       d="M 36.777344,12.169922 V 35.71875 h 3.96875 V 12.169922 Z"
       id="path1183" />
    <path
       d="m 51.593749,25.399998 -2.116666,2e-6 v -9.260417 h 4.497916 c 4.314516,1.097194 3.22054,5.258332 1.058334,6.085417 l 2.116666,3.174998 h -2.645833 l -1.852083,-2.910417 v -1.852083 c 2.706242,-0.02032 2.287722,-1.845411 1.322916,-2.38125 h -2.38125 z"
       id="path2039"
       sodipodi:nodetypes="cccccccccccc" />
    <path
       d="m 87.312499,41.274998 h -2.38125 v -9.260417 h 5.027084 c 4.069579,1.377213 2.64724,5.444233 0.79375,6.085417 l 2.116666,3.175 h -2.645833 l -1.852083,-2.910417 v -1.852083 h 1.058333 c 1.675506,-0.766826 1.047113,-1.572731 0.264583,-2.38125 h -2.38125 z"
       id="path2039-3"
       sodipodi:nodetypes="ccccccccccccc" />
    <path
       d="m 67.997916,25.4 -6.879167,-2e-6 v -9.260417 h 6.879167 v 2.116667 h -4.7625 v 1.5875 h 4.233333 v 1.852083 h -4.233333 l 0,1.587502 h 4.7625 z"
       id="path2359"
       sodipodi:nodetypes="ccccccccccccc" />
    <path
       d="m 72.231249,25.399998 2.116667,2e-6 v -5.027084 l 1.852083,2.645832 h 1.058333 l 1.5875,-2.645833 v 5.027083 h 2.116667 l 0,-9.260415 h -2.116666 l -2.116667,3.968748 -2.38125,-3.96875 h -2.116667 z"
       id="path2361"
       sodipodi:nodetypes="cccccccccccccc" />
    <path
       id="path2367"
       d="m 97.102082,16.404165 v 8.995833 h 4.233338 c 1.45814,-0.523841 2.46704,-1.377339 2.91041,-2.645833 v -3.96875 c -0.5242,-1.003403 -1.01299,-2.027561 -2.64583,-2.38125 z m 2.116666,1.852083 h 1.852082 c 0.67383,0.34153 1.06571,0.692939 1.05834,1.058333 v 3.175 c -0.0272,0.621906 -0.26244,1.071785 -1.05834,1.058334 h -1.852082 z"
       sodipodi:nodetypes="cccccccccccccc" />
    <path
       d="m 108.47917,16.139581 v 9.260417 h 6.87916 v -1.852083 h -4.7625 v -1.852084 h 4.23334 v -1.852083 h -4.23334 l 0,-1.852082 h 4.49792 l 0,-1.852085 z"
       id="path2371"
       sodipodi:nodetypes="ccccccccccccc" />
    <path
       d="m 119.85625,16.139581 v 9.260417 h 6.35 v -1.852083 h -4.23333 v -7.408334 z"
       id="path2373" />
    <path
       d="m 53.974999,34.924998 h 2.116667 v -1.058333 c -1.464916,-2.744558 -5.870001,-2.375583 -7.14375,0 v 1.322916 c 0.183931,0.584539 0.188111,1.766982 3.114703,2.388417 2.009701,0.493556 2.022809,0.8934 1.884034,1.461845 -1.206951,1.001343 -2.977407,0.367043 -3.146654,-0.675262 h -2.116666 v 0.79375 c 1.668794,3.57609 7.298315,1.920589 7.408333,0.264583 v -1.5875 c -0.18217,-2.172728 -4.937621,-1.82779 -5.027083,-3.174999 0.541575,-1.255602 2.438832,-1.103506 2.910416,0.264583 z"
       id="path2375"
       sodipodi:nodetypes="cccccccccccccc" />
    <path
       d="m 60.324999,41.274998 h 2.116667 v -5.291667 l 1.5875,2.910417 h 1.322917 l 1.322916,-2.645833 v 5.027083 h 2.116667 v -8.995833 h -2.116667 l -1.852083,3.704166 -2.645833,-3.96875 h -1.852084 z"
       id="path2377" />
    <path
       id="path2379"
       d="m 75.935415,32.279165 -3.439583,8.995833 h 2.116667 l 0.79375,-1.5875 h 3.175 l 0.79375,1.5875 h 2.116666 l -3.439583,-8.995833 z m 1.058334,2.645833 1.058333,2.910416 h -2.116667 z" />
    <path
       d="m 98.689582,34.131248 v 7.14375 h 2.116668 v -7.14375 h 2.64583 v -2.116667 h -7.408331 v 2.116667 z"
       id="path2553" />
  </g>
</svg>
