<svg id="Layer_1" data-name="Layer 1" xmlns="http://www.w3.org/2000/svg" viewBox="0 0 697.11 241.63"><defs><style>.cls-1{fill:#0c3;}.cls-2{fill:#1e1c1c;}</style></defs><path class="cls-1" d="M321.21,16.57a4.12,4.12,0,0,0-4.22.17L267.59,49a4.11,4.11,0,0,0-1.87,3.45v83.18H274V54.68l41.15-26.87V76.15l-8.66,4.55a3.89,3.89,0,0,0-.91.35L285.13,91.87v9.2a4,4,0,0,0,.87-.33l17.36-9.1v44h8.24V87.31l9.56-5a4.12,4.12,0,0,0,2.21-3.65V20.19A4.12,4.12,0,0,0,321.21,16.57Z"/><path class="cls-1" d="M313.6,137.62H301.36V95l-14.43,7.56a6.06,6.06,0,0,1-1.3.5l-2.5.65v-13l21.48-11.39a5.38,5.38,0,0,1,1.11-.45l7.4-3.89V31.51L276,55.76v81.86H263.72V52.44a6.08,6.08,0,0,1,2.77-5.12L315.9,15.07a6.12,6.12,0,0,1,6.26-.26h0a6.12,6.12,0,0,1,3.21,5.39V78.65a6.11,6.11,0,0,1-3.28,5.42l-8.49,4.45Zm-8.24-4h4.24V86.1l10.63-5.57a2.11,2.11,0,0,0,1.14-1.88V20.2a2.12,2.12,0,0,0-1.11-1.87,2.09,2.09,0,0,0-2.17.09L268.68,50.66a2.13,2.13,0,0,0-1,1.78v81.18H272v-80l45.15-29.47V77.36l-9.94,5.22-.23.06a2.29,2.29,0,0,0-.46.17L287.13,93.07v4.82l18.23-9.56Z"/><path class="cls-1" d="M397.25,86.78,344.6,73.42V26.74L391.11,49V71.68l8.25,2.1V46.4A4.11,4.11,0,0,0,397,42.68L342.26,16.47a4.14,4.14,0,0,0-5.91,3.72V76.63a4.13,4.13,0,0,0,3.11,4L392.11,94v33.38h-61v8.25h65.17a4.11,4.11,0,0,0,4.12-4.12V90.78A4.13,4.13,0,0,0,397.25,86.78Z"/><path class="cls-1" d="M396.24,137.62H329.07V125.37h61V95.55L339,82.57a6.12,6.12,0,0,1-4.62-5.94V20.2a6.12,6.12,0,0,1,8.77-5.53l54.76,26.2a6.16,6.16,0,0,1,3.48,5.53V76.35l-12.25-3.11v-23L346.6,29.91v42l51.14,13a6.12,6.12,0,0,1,4.62,5.93V131.5A6.12,6.12,0,0,1,396.24,137.62Zm-63.17-4h63.17a2.12,2.12,0,0,0,2.12-2.12V90.78a2.13,2.13,0,0,0-1.6-2.06h0L342.6,75V23.57l50.51,24.17V70.13l4.25,1.08V46.4a2.14,2.14,0,0,0-1.21-1.92l-54.76-26.2a2.12,2.12,0,0,0-3,1.92V76.63a2.13,2.13,0,0,0,1.6,2.06l54.16,13.74v36.94h-61Z"/><path class="cls-2" d="M40.58,183.45H60.41q8.24,0,12.64,4.4a13.39,13.39,0,0,1,3.72,9.91v.13a13.62,13.62,0,0,1-2.57,8.58,14.93,14.93,0,0,1-6.72,4.86l10.59,15.49H66.92l-9.3-13.88H50.13v13.88H40.58Zm19.21,21.07a7.89,7.89,0,0,0,5.42-1.68,5.65,5.65,0,0,0,1.89-4.46v-.12a5.53,5.53,0,0,0-2-4.65,8.76,8.76,0,0,0-5.51-1.55H50.13v12.46Z"/><path class="cls-2" d="M90.34,183.45H123v8.49H99.76v8.8h20.45v8.48H99.76v9.11H123.3v8.49h-33Z"/><path class="cls-2" d="M136.81,183.45H147.1l11.4,18.34,11.4-18.34h10.29v43.37h-9.42V198.5L158.56,217h-.25l-12.08-18.34v28.13h-9.42Z"/><path class="cls-2" d="M216.62,227.57a23.58,23.58,0,0,1-9.23-1.77,23,23,0,0,1-7.28-4.77,21.12,21.12,0,0,1-4.77-7.07,22.13,22.13,0,0,1-1.71-8.7v-.12a21.89,21.89,0,0,1,1.74-8.71,22.15,22.15,0,0,1,12.11-12,25.06,25.06,0,0,1,18.5,0,23.22,23.22,0,0,1,7.28,4.77,21.53,21.53,0,0,1,4.77,7.07,22.31,22.31,0,0,1,1.7,8.7v.13a22,22,0,0,1-1.73,8.7,22.21,22.21,0,0,1-12.12,12A23.8,23.8,0,0,1,216.62,227.57Zm.12-8.8a12.92,12.92,0,0,0,5.27-1.06,12,12,0,0,0,4.12-2.91,13.78,13.78,0,0,0,2.67-4.31,14.17,14.17,0,0,0,1-5.23v-.12a14.46,14.46,0,0,0-1-5.27,13.26,13.26,0,0,0-2.73-4.34,13.07,13.07,0,0,0-4.18-2.94,13.53,13.53,0,0,0-10.57,0,12.11,12.11,0,0,0-4.09,2.91,13.75,13.75,0,0,0-2.66,4.31,14.17,14.17,0,0,0-1,5.23v.13a14.44,14.44,0,0,0,1,5.26,13.24,13.24,0,0,0,2.72,4.34,13.09,13.09,0,0,0,4.16,2.94A12.52,12.52,0,0,0,216.74,218.77Z"/><path class="cls-2" d="M253.18,183.45h16.91a25.75,25.75,0,0,1,9.33,1.64,21.9,21.9,0,0,1,7.31,4.55,20.26,20.26,0,0,1,4.74,6.85,21.44,21.44,0,0,1,1.67,8.52v.13a21.73,21.73,0,0,1-1.67,8.55,20,20,0,0,1-4.74,6.87,22.32,22.32,0,0,1-7.31,4.59,25.34,25.34,0,0,1-9.33,1.67H253.18Zm16.91,34.76a14.73,14.73,0,0,0,5.33-.93,11.49,11.49,0,0,0,4.12-2.66,12.49,12.49,0,0,0,2.67-4.09,13.86,13.86,0,0,0,1-5.27v-.12a14.15,14.15,0,0,0-1-5.27,12.25,12.25,0,0,0-2.67-4.15,11.71,11.71,0,0,0-4.12-2.7,14.32,14.32,0,0,0-5.33-1h-7.37v26.15Z"/><path class="cls-2" d="M306.59,183.45h32.65v8.49H316v8.8h20.45v8.48H316v9.11h23.54v8.49h-33Z"/><path class="cls-2" d="M353.06,183.45h9.54v34.76h21.63v8.61H353.06Z"/><path class="cls-2" d="M432.16,227.44a28.9,28.9,0,0,1-9.73-1.7,25.7,25.7,0,0,1-8.67-5.24l5.64-6.75a28.16,28.16,0,0,0,6.1,3.84,16.35,16.35,0,0,0,6.85,1.43,8.33,8.33,0,0,0,4.61-1.09,3.39,3.39,0,0,0,1.64-3v-.13a3.7,3.7,0,0,0-.34-1.64,3.4,3.4,0,0,0-1.3-1.33,13,13,0,0,0-2.67-1.24,45.67,45.67,0,0,0-4.45-1.3,55.3,55.3,0,0,1-6-1.8,16.76,16.76,0,0,1-4.53-2.45,9.82,9.82,0,0,1-2.89-3.62,12.49,12.49,0,0,1-1-5.39v-.13a12.56,12.56,0,0,1,1.11-5.36,12.17,12.17,0,0,1,3.11-4.12,14,14,0,0,1,4.78-2.66,19.17,19.17,0,0,1,6.12-.93,26,26,0,0,1,8.77,1.42,25.6,25.6,0,0,1,7.34,4.09l-5,7.19a31.81,31.81,0,0,0-5.7-3.13,14.64,14.64,0,0,0-5.57-1.14,6.79,6.79,0,0,0-4.19,1.08,3.28,3.28,0,0,0-1.39,2.7v.12a3.92,3.92,0,0,0,.4,1.83,3.71,3.71,0,0,0,1.46,1.39,14,14,0,0,0,2.89,1.18c1.22.37,2.77.8,4.63,1.3a44.82,44.82,0,0,1,5.87,1.95,16.34,16.34,0,0,1,4.35,2.6,10,10,0,0,1,2.67,3.57,12.06,12.06,0,0,1,.9,4.89V214a13.46,13.46,0,0,1-1.17,5.73,11.67,11.67,0,0,1-3.26,4.21,14.49,14.49,0,0,1-5,2.6A21.58,21.58,0,0,1,432.16,227.44Z"/><path class="cls-2" d="M461.28,183.45h10.29L483,201.79l11.4-18.34h10.29v43.37h-9.42V198.51L483,217h-.25L470.7,198.69v28.13h-9.42Z"/><path class="cls-2" d="M534.89,183.14h8.8l18.59,43.68h-10l-4-9.73H530l-4,9.73h-9.72Zm10,25.53-5.76-14.07-5.76,14.07Z"/><path class="cls-2" d="M573.93,183.45h19.83q8.24,0,12.64,4.4a13.39,13.39,0,0,1,3.72,9.91v.13a13.62,13.62,0,0,1-2.57,8.58,14.91,14.91,0,0,1-6.73,4.86l10.6,15.49H600.27L591,212.94h-7.5v13.88h-9.54Zm19.21,21.07a7.91,7.91,0,0,0,5.42-1.68,5.65,5.65,0,0,0,1.89-4.46v-.12a5.53,5.53,0,0,0-2-4.65,8.77,8.77,0,0,0-5.52-1.55h-9.48v12.46Z"/><path class="cls-2" d="M633.79,192.25h-13.2v-8.8h35.94v8.8h-13.2v34.57h-9.54Z"/></svg>