<svg id="Layer_1" data-name="Layer 1" xmlns="http://www.w3.org/2000/svg" viewBox="0 0 464.63 133.53"><defs><style>.cls-1{fill:#0c3;}</style></defs><path class="cls-1" d="M178.81,43.38H194.3q6.44,0,9.88,3.43a10.5,10.5,0,0,1,2.9,7.75v.09a10.63,10.63,0,0,1-2,6.71,11.65,11.65,0,0,1-5.25,3.8l8.28,12.1h-8.72l-7.26-10.84h-5.85V77.26h-7.46Zm15,16.45a6.17,6.17,0,0,0,4.23-1.3A4.42,4.42,0,0,0,199.53,55V55A4.35,4.35,0,0,0,198,51.31a6.88,6.88,0,0,0-4.31-1.21h-7.4v9.73Z"/><path class="cls-1" d="M217.68,43.38h25.51V50H225v6.87h16v6.63H225v7.12h18.39v6.63H217.68Z"/><path class="cls-1" d="M254,43.38h8l8.91,14.32,8.91-14.32h8V77.26h-7.36V55.14L271,69.61h-.2l-9.44-14.33v22H254Z"/><path class="cls-1" d="M316.33,77.84a18.49,18.49,0,0,1-7.21-1.38,18,18,0,0,1-5.69-3.73,16.61,16.61,0,0,1-3.72-5.51,17.37,17.37,0,0,1-1.34-6.8v-.1a17.17,17.17,0,0,1,1.36-6.8,17.35,17.35,0,0,1,9.46-9.35,18.86,18.86,0,0,1,7.24-1.37,18.63,18.63,0,0,1,7.21,1.37,18,18,0,0,1,5.69,3.73,16.78,16.78,0,0,1,3.73,5.52,17.32,17.32,0,0,1,1.33,6.8v.1a17,17,0,0,1-1.36,6.8,17.29,17.29,0,0,1-9.46,9.34A18.64,18.64,0,0,1,316.33,77.84Zm.1-6.87a10.38,10.38,0,0,0,4.12-.82,9.39,9.39,0,0,0,3.21-2.28,10.75,10.75,0,0,0,2.09-3.36,11.13,11.13,0,0,0,.75-4.09v-.1a11.33,11.33,0,0,0-.75-4.12,10.17,10.17,0,0,0-5.4-5.68,9.86,9.86,0,0,0-4.12-.85,10.09,10.09,0,0,0-4.13.82,9.44,9.44,0,0,0-3.2,2.28,10.61,10.61,0,0,0-2.08,3.36,11.13,11.13,0,0,0-.75,4.09v.1a11.27,11.27,0,0,0,.75,4.11,10.23,10.23,0,0,0,5.37,5.69A9.79,9.79,0,0,0,316.43,71Z"/><path class="cls-1" d="M344.89,43.38h13.22a19.92,19.92,0,0,1,7.28,1.28,17.14,17.14,0,0,1,5.72,3.56,15.85,15.85,0,0,1,3.7,5.35,16.82,16.82,0,0,1,1.31,6.65v.1A17,17,0,0,1,374.81,67a15.83,15.83,0,0,1-3.7,5.37A17.51,17.51,0,0,1,365.39,76a19.52,19.52,0,0,1-7.28,1.31H344.89Zm13.22,27.15a11.57,11.57,0,0,0,4.16-.72,9,9,0,0,0,3.22-2.09,9.63,9.63,0,0,0,2.08-3.19,10.82,10.82,0,0,0,.75-4.11v-.1a11.06,11.06,0,0,0-.75-4.12A9.65,9.65,0,0,0,365.49,53a9.43,9.43,0,0,0-3.22-2.11,11.36,11.36,0,0,0-4.16-.75h-5.76V70.53Z"/><path class="cls-1" d="M386.62,43.38h25.51V50H394v6.87h16v6.63H394v7.12h18.39v6.63H386.62Z"/><path class="cls-1" d="M422.92,43.38h7.46V70.53h16.89v6.73H422.92Z"/><path class="cls-1" d="M190.91,128.55a22.42,22.42,0,0,1-7.6-1.34,20,20,0,0,1-6.77-4.09l4.4-5.27a22,22,0,0,0,4.77,3,12.78,12.78,0,0,0,5.35,1.11,6.52,6.52,0,0,0,3.6-.84,2.67,2.67,0,0,0,1.29-2.35v-.1a2.9,2.9,0,0,0-.27-1.28,2.71,2.71,0,0,0-1-1,10.67,10.67,0,0,0-2.09-1c-.89-.32-2-.66-3.47-1a42,42,0,0,1-4.66-1.4,13.18,13.18,0,0,1-3.54-1.91,7.82,7.82,0,0,1-2.26-2.83,9.93,9.93,0,0,1-.8-4.22v-.09a9.78,9.78,0,0,1,.87-4.19,9.34,9.34,0,0,1,2.43-3.22,10.83,10.83,0,0,1,3.73-2.08,15.12,15.12,0,0,1,4.78-.73,20,20,0,0,1,6.85,1.12A19.61,19.61,0,0,1,202.24,98l-3.87,5.62a24.22,24.22,0,0,0-4.46-2.45,11.47,11.47,0,0,0-4.35-.89,5.3,5.3,0,0,0-3.27.84,2.58,2.58,0,0,0-1.09,2.11v.1a3,3,0,0,0,.32,1.42,2.8,2.8,0,0,0,1.14,1.09,10.36,10.36,0,0,0,2.25.92c1,.29,2.16.63,3.62,1a35.77,35.77,0,0,1,4.59,1.52,12.93,12.93,0,0,1,3.39,2,7.71,7.71,0,0,1,2.09,2.78,9.46,9.46,0,0,1,.7,3.83V118a10.48,10.48,0,0,1-.91,4.48,9.19,9.19,0,0,1-2.55,3.29,11.3,11.3,0,0,1-3.9,2A16.89,16.89,0,0,1,190.91,128.55Z"/><path class="cls-1" d="M213.66,94.18h8l8.91,14.33,8.9-14.33h8v33.88h-7.36V105.94l-9.54,14.47h-.19L221,106.09v22h-7.36Z"/><path class="cls-1" d="M271.17,93.94H278l14.53,34.12h-7.8l-3.09-7.6H267.35l-3.1,7.6h-7.6ZM279,113.88l-4.5-11-4.5,11Z"/><path class="cls-1" d="M301.67,94.18h15.49q6.43,0,9.87,3.43a10.47,10.47,0,0,1,2.91,7.75v.1a10.62,10.62,0,0,1-2,6.7,11.62,11.62,0,0,1-5.26,3.8l8.28,12.1h-8.71L315,117.22h-5.86v10.84h-7.45Zm15,16.46a6.22,6.22,0,0,0,4.24-1.31,4.43,4.43,0,0,0,1.47-3.49v-.09a4.31,4.31,0,0,0-1.54-3.63,6.84,6.84,0,0,0-4.31-1.21h-7.41v9.73Z"/><path class="cls-1" d="M348.43,101.05H338.12V94.18h28.07v6.87H355.88v27h-7.45Z"/><path class="cls-1" d="M74.85,7.49a4.12,4.12,0,0,0-4.22.17L21.23,39.91a4.12,4.12,0,0,0-1.87,3.46v83.18h8.25V45.6L68.76,18.73V67.07L60.1,71.62a4.38,4.38,0,0,0-.91.35L38.77,82.79V92a3.77,3.77,0,0,0,.88-.33L57,82.56v44h8.25V78.23l9.56-5A4.13,4.13,0,0,0,77,69.57V11.12A4.12,4.12,0,0,0,74.85,7.49Z"/><path class="cls-1" d="M67.25,128.55H55V85.87L40.57,93.44a6.63,6.63,0,0,1-1.3.49l-2.5.65v-13L58.25,70.2a6.29,6.29,0,0,1,1.11-.45l7.4-3.88V22.43L29.61,46.68v81.87H17.36V43.37a6.1,6.1,0,0,1,2.78-5.13L69.54,6a6.12,6.12,0,0,1,6.26-.26h0A6.12,6.12,0,0,1,79,11.12V69.57A6.09,6.09,0,0,1,75.73,75l-8.48,4.45Zm-8.25-4h4.25V77l10.63-5.58A2.12,2.12,0,0,0,75,69.57V11.12a2.12,2.12,0,0,0-3.28-1.78L22.32,41.59a2.12,2.12,0,0,0-1,1.78v81.18h4.25v-80L70.76,15V68.28L60.82,73.5l-.23.06a2,2,0,0,0-.46.18L40.77,84v4.82L59,79.25Z"/><path class="cls-1" d="M150.89,77.71,98.24,64.34V17.66l46.51,22.26V62.6L153,64.7V37.32a4.11,4.11,0,0,0-2.35-3.72L95.9,7.4A4.13,4.13,0,0,0,90,11.12V67.55a4.12,4.12,0,0,0,3.11,4l52.66,13.36V118.3h-61v8.25h65.17a4.13,4.13,0,0,0,4.13-4.13V81.7A4.13,4.13,0,0,0,150.89,77.71Z"/><path class="cls-1" d="M149.88,128.55H82.71V116.3h61.05V86.47l-51.15-13A6.12,6.12,0,0,1,88,67.55V11.12a6.13,6.13,0,0,1,8.77-5.53l54.76,26.2A6.17,6.17,0,0,1,155,37.32V67.27l-12.25-3.11v-23L100.24,20.84v42l51.15,13A6.12,6.12,0,0,1,156,81.7v40.72A6.14,6.14,0,0,1,149.88,128.55Zm-63.17-4h63.17a2.14,2.14,0,0,0,2.13-2.13V81.7a2.13,2.13,0,0,0-1.61-2.06h0L96.24,65.9V14.49l50.51,24.17V61.05L151,62.13V37.32a2.13,2.13,0,0,0-1.21-1.92L95,9.2a2.12,2.12,0,0,0-3,1.92V67.55a2.12,2.12,0,0,0,1.61,2.06l54.16,13.75V120.3h-61Z"/></svg>