<svg id="Layer_1" data-name="Layer 1" xmlns="http://www.w3.org/2000/svg" viewBox="0 0 251.6 224.22"><defs><style>.cls-1{fill:#0c3;}</style></defs><path class="cls-1" d="M107.34,19.62a6.45,6.45,0,0,0-6.58.27L23.67,70.21a6.43,6.43,0,0,0-2.91,5.39V205.38H33.63V79.08L97.84,37.16v75.43l-13.51,7.09a6.14,6.14,0,0,0-1.42.55L51,137.11v14.36a6.29,6.29,0,0,0,1.37-.51l27.07-14.21v68.63H92.36V130l14.91-7.82a6.44,6.44,0,0,0,3.45-5.7V25.28A6.44,6.44,0,0,0,107.34,19.62Z"/><path class="cls-1" d="M95.48,208.5H76.36V141.92l-22.5,11.8a8.9,8.9,0,0,1-2,.77l-3.91,1V135.24l33.52-17.77a9.68,9.68,0,0,1,1.73-.71l11.55-6.06V42.93l-58,37.84V208.5H17.64V75.6a9.56,9.56,0,0,1,4.33-8L99.06,17.28a9.52,9.52,0,0,1,9.77-.4h0a9.54,9.54,0,0,1,5,8.4v91.2a9.52,9.52,0,0,1-5.12,8.46l-13.24,6.95Zm-12.87-6.24h6.63V128.12l16.58-8.7a3.3,3.3,0,0,0,1.77-2.94V25.28a3.31,3.31,0,0,0-5.12-2.78L25.38,72.82a3.3,3.3,0,0,0-1.5,2.78V202.26h6.63V77.39L101,31.4v83.08l-15.51,8.14-.36.09a3.13,3.13,0,0,0-.72.27l-30.2,16v7.52l28.44-14.92Z"/><path class="cls-1" d="M226,129.18l-82.15-20.85V35.49l72.57,34.73v35.39l12.87,3.27V66.16a6.44,6.44,0,0,0-3.66-5.8L140.18,19.47A6.43,6.43,0,0,0,131,25.28v88.06a6.43,6.43,0,0,0,4.85,6.23L218,140.42v52.09H122.73v12.87H224.41a6.43,6.43,0,0,0,6.44-6.43V135.42A6.43,6.43,0,0,0,226,129.18Z"/><path class="cls-1" d="M224.41,208.5H119.61V189.39h95.25V142.85L135.05,122.6a9.55,9.55,0,0,1-7.2-9.26V25.28a9.55,9.55,0,0,1,13.68-8.62L227,57.54a9.62,9.62,0,0,1,5.43,8.62v46.73L213.28,108V72.18L147,40.44V105.9l79.8,20.25a9.56,9.56,0,0,1,7.21,9.26V199A9.56,9.56,0,0,1,224.41,208.5Zm-98.56-6.24h98.56a3.32,3.32,0,0,0,3.32-3.31V135.41a3.32,3.32,0,0,0-2.5-3.21h0l-84.51-21.44V30.54l78.81,37.71v34.94l6.63,1.68V66.16a3.33,3.33,0,0,0-1.89-3L138.83,22.29a3.3,3.3,0,0,0-4.74,3v88.06a3.32,3.32,0,0,0,2.5,3.21L221.1,138v57.64H125.85Z"/></svg>